<svg xmlns="http://www.w3.org/2000/svg" width="1440" height="256" viewBox="0 0 1440 256">
    <path d="M518.1,0H265.26C299,21.59,332,44.41,363.93,68A1647.55,1647.55,0,0,1,492.55,173.81,1328.68,1328.68,0,0,1,514.32,18.87Q516.12,9.42,518.1,0Z" fill="#ec6090"/>
    <path d="M741.92,114.2c2.32-4.86,5.21-10.26,8.1-15.65,3.48-7,7.53-14,11.59-21,2.89-4.85,5.21-9.71,8.1-14.56,4.64-7,8.69-14.57,13.32-22.13,2.9-4.32,5.21-8.63,8.11-13C796.67,18.42,802.56,9.3,808.53,0H655.78c6.37,9.7,12.67,19.73,18.56,29.77,2.27,3.7,5.1,7.93,7.37,12.16,4,7.39,8.51,14.79,13,22.19,2.83,5.28,5.1,10,7.94,14.8,4,6.86,7.94,13.73,11.34,20.6l8.51,15.85c3.39,6.31,6.77,12.1,9.6,18.41l.15-.29-.22-.41C735,126.61,738.44,120.67,741.92,114.2Z" fill="#e4032e"/>
    <path d="M956.86,14.91a1361.51,1361.51,0,0,1,21.62,155.26c38.44-35.32,79.42-69.18,122.46-101.6,31.89-23.79,64.86-46.82,98.52-68.57H953.8C954.84,5,955.86,9.93,956.86,14.91Z" fill="#95c11f"/>
    <path d="M0,189.23V256H209.79c-29.7-11.42-60-22.14-90.66-32C79.74,210.92,39.89,199.24,0,189.23Z" fill="#bc88bc"/>
    <path d="M491.09,173.4l-1-1,0-.4,1,.93v-.75C450.86,135.76,407.76,100.36,363,66.54,331.76,43.48,299.52,21.15,266.61,0H218a1318.44,1318.44,0,0,0,19.69,131.76c8.35,42,18.61,83.55,30.77,124.22H487.23c.26-23.46,1.22-47.63,3.11-71.64Q490.7,178.87,491.09,173.4Z" fill="#f191a3"/>
    <path d="M560.35,237.21c-3.5-3.86-7.6-7.71-11.1-11.56a101.34,101.34,0,0,1-11.11-11l-5.85-5.51c-11.69-11.56-23.38-22.58-35.66-34.14l-4.68-4.4-.58-.55-.09-.08v1.49c-.29,3.29-.55,6.59-.81,9.89-1.64,25-2.87,50.23-3.2,74.64h90.65c-2.57-2.79-5.23-5.68-7.63-8.31C566.78,244.37,563.86,240.51,560.35,237.21Z" fill="#eb5f60"/>
    <path d="M788.59,244.4,781,226a70.3,70.3,0,0,1-4.44-10c-3.17-7.25-6.33-14-9.5-21.2-1.27-2.79-1.9-5-3.17-7.25-4.43-9.48-8.87-19-13.94-28.45-.63-1.67-1.9-3.34-2.53-5-3.8-7.25-8.24-15.06-12-22.86v-.56l-.63-.56-.39-.69c.35-.63.69-1.24,1-1.87l-.21-.18h-.62l-.63,1.1-.62.55v.55c-.09.15-.17.32-.26.47.16.29.31.57.48.86.23-.4.44-.79.66-1.19a.47.47,0,0,1,.05.1l-.62,1.09-.62.55v.54c-3.72,7.1-7.45,13.66-10.55,20.21-1.24,2.73-2.48,4.92-3.72,7.65-5,9.28-9.31,18.57-13.65,27.85-1.87,3.28-3.11,7.1-5,10.38C697,203.49,694.52,209.5,692,215c-1.86,3.82-3.1,7.64-5,11.47-2.48,5.46-4.35,10.37-6.83,15.84-1.86,3.82-3.1,7.64-5,11.46-.26.75-.55,1.5-.82,2.24H793.2c-.06-.14-.11-.28-.18-.42C791.76,251.65,789.86,248.31,788.59,244.4Z" fill="#4e7b31"/>
    <path d="M1241.87,0h-42.21c-33.49,21.47-66.35,44-98.41,67.37C1057,100,1015.31,134.59,975.78,170.2l.15,1.74L974.77,173l-.58.54-.58.54L972,175.62c2.38,26.9,3.53,53.79,3.82,80.36h215.88q4.29-14.29,8.3-28.8c8.42-30.89,15.78-62.22,22.06-93.75A1317.58,1317.58,0,0,0,1241.87,0Z" fill="#40aabb"/>
    <path d="M959.61,185.56l-5.68,5.21c-8.22,8.1-16.43,15.61-24.64,23.71-1.26,1.74-3.16,2.89-4.42,4.63l-19,19.08a74.47,74.47,0,0,1-6.95,7.52c-3.19,3.29-6.39,6.81-9.59,10.27h91c-.41-28-2-57.07-4.08-85.73Z" fill="#008bcc"/>
    <path d="M1339.58,222.27c-31.7,10.29-63,21.63-93.74,33.71H1440V192C1406.63,201,1372.86,211.4,1339.58,222.27Z" fill="#0072b1"/>
    <path d="M684.7,241.22c2.26-5.32,4-10.1,6.22-15.42,1.7-3.72,2.83-7.45,4.52-11.17,2.27-5.32,5.09-11.17,7.36-16.48,1.69-3.2,2.82-6.92,4.52-10.11,4-9,8.48-18.08,12.44-27.12,1.13-2.66,2.26-4.79,3.39-7.45,3.31-6.23,6.09-13,9.38-19.22-3.17-6-5.89-11.59-9.1-17.64q-4.21-7.92-8.42-15.83c-3.37-6.86-7.29-13.72-11.22-20.58a125.75,125.75,0,0,0-7.85-14.78C692,58,687.52,50.64,683,43.25c-2.24-3.69-5-7.91-7.29-12.13-6-10.43-12.55-20.45-19.1-30.8H517q-2.06,9.58-4,19.18a1328.48,1328.48,0,0,0-21.21,152.24l4.43,4.17c11.86,10.62,23.15,21.77,34.45,32.93,2.25,1.59,3.95,3.71,5.64,5.31a97.83,97.83,0,0,1,10.73,10.62c3.39,3.72,7.34,7.43,10.73,11.15,3.39,3.19,6.21,6.91,9.6,10.09,2.88,3.17,6.15,6.69,9.15,10H678.93c.43-1.18.86-2.37,1.25-3.59C681.88,248.67,683,245,684.7,241.22Z" fill="#f39a8b"/>
    <path d="M907.59,238l17-17.43c1.14-1.59,2.84-2.65,4-4.23,7.38-7.4,14.76-14.8,22.14-21.67a47.89,47.89,0,0,1,5.11-5.28l17-15.85.57-.53.56-.53,1.14-1.06-.46,2.15,3.79-3.41v0A1347.15,1347.15,0,0,0,956.6,14.91Q955.09,7.44,953.5,0H807.31c-6.84,10.35-13.64,21.11-20,31.89-2.83,4.22-5.11,8.45-7.94,12.68-4.55,6.87-9.09,14.27-13.06,21.66-2.84,4.76-5.11,9.51-8,14.27-4,6.87-7.38,13.74-11.36,20.61-2.83,4.75-5.1,10-7.94,15.32s-5.27,10.14-8,15.26l.38.35v.53c4,6.93,7.44,14.38,10.87,21.84.57,1.59,1.71,3.19,2.29,4.79,4.57,9.05,8.58,18.1,12.58,27.16,1.15,2.66,1.72,4.79,2.86,6.92,2.86,6.92,5.73,13.31,8.59,20.23a68.49,68.49,0,0,1,4,9.59l6.87,17.57c1.14,3.73,2.86,6.92,4,10.65.5,1.56,1.06,3.11,1.63,4.66H890.63c3.38-3.69,6.76-7.52,10.15-11.07C903.05,242.8,905.32,240.16,907.59,238Z" fill="#6ba230"/>
    <path d="M239.77,130C231.1,86.54,224.66,43.13,220.44,0H0V189.44c39.52,10.22,79,21.37,118,34.26,30.84,10,61.33,20.77,91.2,32.28h-1.38l0,0h62.9v0h-.07C258.46,215,248.15,172.46,239.77,130Z" fill="#ed7004"/>
    <path d="M1440,195V0H1240.63c-4.43,43.05-10.59,86.38-19.41,129.72-6.44,32.71-14.26,65.41-23.13,97.46q-3.93,14.46-8.19,28.8h61c31-11.82,62.81-22.93,94.95-33.34C1377.09,212.77,1408.34,203.32,1440,195Z" fill="#6ebeca"/>
</svg>
